<svg width="32px" height="32px" viewBox="0 0 32 32" version="1.1" xmlns="http://www.w3.org/2000/svg" xmlns:xlink="http://www.w3.org/1999/xlink">

                    <g stroke="none" stroke-width="1" fill="none" fill-rule="evenodd">
                        <g transform="translate(-571.000000, -818.000000)" fill="#969696">
                            <g transform="translate(571.000000, 818.000000)">
                                <polygon id="Shape" fill-rule="nonzero" points="0 0 2 0 2 2 0 2"></polygon>
                                <polygon id="Shape" fill-rule="nonzero" points="4 0 6 0 6 2 4 2"></polygon>
                                <polygon id="Shape" fill-rule="nonzero" points="2 2 4 2 4 4 2 4"></polygon>
                                <polygon id="Shape" fill-rule="nonzero" points="0 4 2 4 2 6 0 6"></polygon>
                                <polygon id="Shape" fill-rule="nonzero" points="4 4 6 4 6 6 4 6"></polygon>
                                <polygon id="Shape" fill-rule="nonzero" points="2 6 4 6 4 8 2 8"></polygon>
                                <polygon id="Shape" fill-rule="nonzero" points="0 8 2 8 2 10 0 10"></polygon>
                                <polygon id="Shape" fill-rule="nonzero" points="2 10 4 10 4 12 2 12"></polygon>
                                <polygon id="Shape" fill-rule="nonzero" points="0 12 2 12 2 14 0 14"></polygon>
                                <polygon id="Shape" fill-rule="nonzero" points="2 14 4 14 4 16 2 16"></polygon>
                                <polygon id="Shape" fill-rule="nonzero" points="0 16 2 16 2 18 0 18"></polygon>
                                <polygon id="Shape" fill-rule="nonzero" points="2 18 4 18 4 20 2 20"></polygon>
                                <polygon id="Shape" fill-rule="nonzero" points="0 20 2 20 2 22 0 22"></polygon>
                                <polygon id="Shape" fill-rule="nonzero" points="2 22 4 22 4 24 2 24"></polygon>
                                <polygon id="Shape" fill-rule="nonzero" points="0 24 2 24 2 26 0 26"></polygon>
                                <polygon id="Shape" fill-rule="nonzero" points="2 26 4 26 4 28 2 28"></polygon>
                                <polygon id="Shape" fill-rule="nonzero" points="0 28 2 28 2 30 0 30"></polygon>
                                <polygon id="Shape" fill-rule="nonzero" points="4 28 6 28 6 30 4 30"></polygon>
                                <polygon id="Shape" fill-rule="nonzero" points="2 30 4 30 4 32 2 32"></polygon>
                                <polygon id="Shape" fill-rule="nonzero" points="6 30 8 30 8 32 6 32"></polygon>
                                <polygon id="Shape" fill-rule="nonzero" points="10 30 12 30 12 32 10 32"></polygon>
                                <polygon id="Shape" fill-rule="nonzero" points="8 0 10 0 10 2 8 2"></polygon>
                                <polygon id="Shape" fill-rule="nonzero" points="6 2 8 2 8 4 6 4"></polygon>
                                <polygon id="Shape" fill-rule="nonzero" points="10 2 12 2 12 4 10 4"></polygon>
                                <polygon id="Shape" fill-rule="nonzero" points="8 28 10 28 10 30 8 30"></polygon>
                                <polygon id="Shape" fill-rule="nonzero" points="12 0 14 0 14 2 12 2"></polygon>
                                <polygon id="Shape" fill-rule="nonzero" points="16 0 18 0 18 2 16 2"></polygon>
                                <polygon id="Shape" fill-rule="nonzero" points="14 2 16 2 16 4 14 4"></polygon>
                                <polygon id="Shape" fill-rule="nonzero" points="12 28 14 28 14 30 12 30"></polygon>
                                <polygon id="Shape" fill-rule="nonzero" points="16 28 18 28 18 30 16 30"></polygon>
                                <polygon id="Shape" fill-rule="nonzero" points="14 30 16 30 16 32 14 32"></polygon>
                                <polygon id="Shape" fill-rule="nonzero" points="18 30 20 30 20 32 18 32"></polygon>
                                <polygon id="Shape" fill-rule="nonzero" points="22 30 24 30 24 32 22 32"></polygon>
                                <polygon id="Shape" fill-rule="nonzero" points="20 0 22 0 22 2 20 2"></polygon>
                                <polygon id="Shape" fill-rule="nonzero" points="18 2 20 2 20 4 18 4"></polygon>
                                <polygon id="Shape" fill-rule="nonzero" points="22 2 24 2 24 4 22 4"></polygon>
                                <polygon id="Shape" fill-rule="nonzero" points="20 28 22 28 22 30 20 30"></polygon>
                                <polygon id="Shape" fill-rule="nonzero" points="24 0 26 0 26 2 24 2"></polygon>
                                <polygon id="Shape" fill-rule="nonzero" points="28 0 30 0 30 2 28 2"></polygon>
                                <polygon id="Shape" fill-rule="nonzero" points="26 2 28 2 28 4 26 4"></polygon>
                                <path d="M26,4 L24,4 L24,6 L22,6 L22,4 L20,4 L20,6 L18,6 L18,4 L16,4 L16,6 L14,6 L14,4 L12,4 L12,6 L10,6 L10,4 L8,4 L8,6 L6,6 L6,8 L4,8 L4,10 L6,10 L6,12 L4,12 L4,14 L6,14 L6,16 L4,16 L4,18 L6,18 L6,20 L4,20 L4,22 L6,22 L6,24 L4,24 L4,26 L6,26 L6,28 L8,28 L8,26 L10,26 L10,28 L12,28 L12,26 L14,26 L14,28 L16,28 L16,26 L18,26 L18,28 L20,28 L20,26 L22,26 L22,28 L24,28 L24,26 L26,26 L26,24 L28,24 L28,22 L26,22 L26,20 L28,20 L28,18 L26,18 L26,16 L28,16 L28,14 L26,14 L26,12 L28,12 L28,10 L26,10 L26,8 L28,8 L28,6 L26,6 L26,4 Z M24,24 L8,24 L8,8 L24,8 L24,24 Z" id="Shape" fill-rule="nonzero"></path>
                                <polygon id="Shape" fill-rule="nonzero" points="28 4 30 4 30 6 28 6"></polygon>
                                <polygon id="Shape" fill-rule="nonzero" points="28 8 30 8 30 10 28 10"></polygon>
                                <polygon id="Shape" fill-rule="nonzero" points="28 12 30 12 30 14 28 14"></polygon>
                                <polygon id="Shape" fill-rule="nonzero" points="28 16 30 16 30 18 28 18"></polygon>
                                <polygon id="Shape" fill-rule="nonzero" points="28 20 30 20 30 22 28 22"></polygon>
                                <polygon id="Shape" fill-rule="nonzero" points="28 24 30 24 30 26 28 26"></polygon>
                                <polygon id="Shape" fill-rule="nonzero" points="26 26 28 26 28 28 26 28"></polygon>
                                <polygon id="Shape" fill-rule="nonzero" points="24 28 26 28 26 30 24 30"></polygon>
                                <polygon id="Shape" fill-rule="nonzero" points="28 28 30 28 30 30 28 30"></polygon>
                                <polygon id="Shape" fill-rule="nonzero" points="26 30 28 30 28 32 26 32"></polygon>
                                <polygon id="Shape" fill-rule="nonzero" points="30 30 32 30 32 32 30 32"></polygon>
                                <polygon id="Shape" fill-rule="nonzero" points="30 2 32 2 32 4 30 4"></polygon>
                                <polygon id="Shape" fill-rule="nonzero" points="30 6 32 6 32 8 30 8"></polygon>
                                <polygon id="Shape" fill-rule="nonzero" points="30 10 32 10 32 12 30 12"></polygon>
                                <polygon id="Shape" fill-rule="nonzero" points="30 14 32 14 32 16 30 16"></polygon>
                                <polygon id="Shape" fill-rule="nonzero" points="30 18 32 18 32 20 30 20"></polygon>
                                <polygon id="Shape" fill-rule="nonzero" points="30 22 32 22 32 24 30 24"></polygon>
                                <polygon id="Shape" fill-rule="nonzero" points="30 26 32 26 32 28 30 28"></polygon>
                                <path d="M12.2484141,12.3636364 C12.8053047,12.3636364 13.2587413,12.8169495 13.2587413,13.3742387 C13.2587413,13.9315278 12.8053047,14.384841 12.2484141,14.384841 C11.6909732,14.384841 11.2375367,13.9315278 11.2375367,13.3742387 C11.2375367,12.8169495 11.6909732,12.3636364 12.2484141,12.3636364 Z" id="Path" transform="translate(12.248139, 13.374239) scale(-1, 1) translate(-12.248139, -13.374239) "></path>
                                <path d="M14.3143304,18.9320222 L11.1092207,18.9320222 C11.0642292,18.9320222 11.022987,18.90821 11.0010269,18.8701105 C10.9790667,18.8314819 10.9796023,18.7843867 11.0020981,18.7468164 L14.3255783,13.1779436 C14.3700342,13.1028029 14.4953677,13.1028029 14.5398236,13.1779436 L16.4760654,16.4232778 L17.7743919,15.0966753 C17.7979589,15.072334 17.8300957,15.059105 17.8638393,15.059105 L17.8681242,15.059105 C17.9034747,15.0601633 17.9366827,15.0760381 17.9591785,15.1030252 L21.0362765,18.7076586 C21.0689489,18.7298833 21.0909091,18.7674536 21.0909091,18.8097864 C21.0909091,18.8775187 21.0352053,18.9325513 20.9661112,18.9325513 L20.9602195,18.9325513 L17.7615372,18.9325513 L17.7556454,18.9325513 L14.3143304,18.9325513 L14.3143304,18.9320222 Z" id="Path" transform="translate(16.037898, 16.027070) scale(-1, 1) translate(-16.037898, -16.027070) "></path>
                            </g>
                        </g>
                    </g>
                </svg>