<svg width="32px" height="32px" viewBox="0 0 32 32" version="1.1" xmlns="http://www.w3.org/2000/svg" xmlns:xlink="http://www.w3.org/1999/xlink">
    <g stroke="none" stroke-width="1" fill="none" fill-rule="evenodd">
        <g transform="translate(-310.000000, -818.000000)" fill="#979797">
            <g transform="translate(310.000000, 818.000000)">
                <path d="M3,3 L3,29 L29,29 L29,3 L3,3 Z M2,0 L30,0 C31.1045695,-2.02906125e-16 32,0.8954305 32,2 L32,30 C32,31.1045695 31.1045695,32 30,32 L2,32 C0.8954305,32 1.3527075e-16,31.1045695 0,30 L0,2 C-1.3527075e-16,0.8954305 0.8954305,2.02906125e-16 2,0 Z" id="Rectangle-2-Copy-3" fill-rule="nonzero"></path>
                <path d="M9.49927274,9 C10.5384703,9 11.3846154,9.82810603 11.3846154,10.8461538 C11.3846154,11.8642017 10.5384703,12.6923077 9.49927274,12.6923077 C8.45904829,12.6923077 7.61290323,11.8642017 7.61290323,10.8461538 C7.61290323,9.82810603 8.45904829,9 9.49927274,9 Z" id="Path" transform="translate(9.498759, 10.846154) scale(-1, 1) translate(-9.498759, -10.846154) "></path>
                <path d="M13.3544201,20.9990333 L7.37345658,20.9990333 C7.2894992,20.9990333 7.21253827,20.9555336 7.17155908,20.885934 C7.13057988,20.8153678 7.13157938,20.729335 7.17355806,20.6607021 L13.3754094,10.4875648 C13.4583673,10.3502989 13.6922486,10.3502989 13.7752064,10.4875648 L17.3883721,16.4160949 L19.811142,13.9926765 C19.8551197,13.9482101 19.9150893,13.9240436 19.9780573,13.9240436 L19.9860532,13.9240436 C20.0520198,13.9259769 20.1139883,13.9549767 20.155967,14.0042764 L25.8980518,20.5891692 C25.9590208,20.6297689 26,20.6984019 26,20.7757347 C26,20.8994673 25.8960528,21 25.7671182,21 L25.7561238,21 L19.7871542,21 L19.7761598,21 L13.3544201,21 L13.3544201,20.9990333 Z" id="Path" transform="translate(16.570720, 15.692308) scale(-1, 1) translate(-16.570720, -15.692308) "></path>
            </g>
        </g>
    </g>
</svg>