<svg width="96" height="96" viewBox="0 0 96 96" fill="none" xmlns="http://www.w3.org/2000/svg">
<g clip-path="url(#clip0_120_473)">
<path d="M24 0C20.8174 0 17.7652 1.26428 15.5147 3.51472C13.2643 5.76516 12 8.8174 12 12V84C12 87.1826 13.2643 90.2348 15.5147 92.4853C17.7652 94.7357 20.8174 96 24 96H72C75.1826 96 78.2348 94.7357 80.4853 92.4853C82.7357 90.2348 84 87.1826 84 84V12C84 8.8174 82.7357 5.76516 80.4853 3.51472C78.2348 1.26428 75.1826 0 72 0L24 0ZM24 6H72C73.5913 6 75.1174 6.63214 76.2426 7.75736C77.3679 8.88258 78 10.4087 78 12V84C78 85.5913 77.3679 87.1174 76.2426 88.2426C75.1174 89.3679 73.5913 90 72 90H24C22.4087 90 20.8826 89.3679 19.7574 88.2426C18.6321 87.1174 18 85.5913 18 84V12C18 10.4087 18.6321 8.88258 19.7574 7.75736C20.8826 6.63214 22.4087 6 24 6Z" fill="#0000ff"/>
<path d="M27.618 72.522C26.4486 72.0543 25.5064 71.1508 24.99 70.002C23.82 67.674 24.21 65.346 25.47 63.39C26.658 61.548 28.626 59.982 30.852 58.668C33.6716 57.0688 36.6521 55.7716 39.744 54.798C42.1451 50.4815 44.2733 46.0188 46.116 41.436C45.0143 38.9326 44.1505 36.3312 43.536 33.666C43.02 31.266 42.822 28.89 43.26 26.85C43.71 24.726 44.904 22.818 47.16 21.912C48.312 21.45 49.56 21.192 50.772 21.45C51.3817 21.5798 51.9548 21.8436 52.4498 22.2224C52.9449 22.6012 53.3494 23.0855 53.634 23.64C54.162 24.624 54.354 25.776 54.396 26.868C54.438 27.99 54.324 29.238 54.114 30.552C53.61 33.612 52.494 37.356 50.994 41.316C52.6494 44.8561 54.6172 48.2415 56.874 51.432C59.5446 51.2211 62.2307 51.3217 64.878 51.732C67.062 52.122 69.282 52.902 70.638 54.522C71.358 55.386 71.796 56.442 71.838 57.63C71.88 58.782 71.556 59.922 71.01 61.008C70.5371 62.0144 69.8038 62.8761 68.886 63.504C67.9788 64.0957 66.9078 64.3856 65.826 64.332C63.84 64.248 61.902 63.156 60.228 61.83C58.1926 60.1468 56.3584 58.2341 54.762 56.13C50.7045 56.5902 46.6951 57.4053 42.78 58.566C40.9851 61.7459 38.9364 64.7757 36.654 67.626C34.914 69.726 33.006 71.556 31.098 72.348C30.0017 72.8439 28.7583 72.9061 27.618 72.522ZM35.892 61.116C34.896 61.572 33.972 62.052 33.138 62.544C31.17 63.708 29.892 64.842 29.256 65.826C28.692 66.696 28.68 67.326 29.016 67.992C29.076 68.124 29.136 68.208 29.172 68.256C29.2436 68.2368 29.3137 68.2128 29.382 68.184C30.204 67.848 31.512 66.774 33.192 64.752C34.1475 63.5822 35.0484 62.3689 35.892 61.116ZM45.732 53.136C47.7355 52.668 49.7571 52.2817 51.792 51.978C50.699 50.3064 49.6781 48.5889 48.732 46.83C47.7911 48.9576 46.7907 51.0584 45.732 53.13V53.136ZM60.408 55.836C61.308 56.808 62.184 57.636 63.018 58.296C64.458 59.436 65.46 59.814 66.006 59.832C66.1522 59.8511 66.3005 59.8193 66.426 59.742C66.6756 59.5449 66.8699 59.2865 66.99 58.992C67.2033 58.6265 67.3248 58.2147 67.344 57.792C67.3406 57.651 67.285 57.5164 67.188 57.414C66.876 57.042 65.988 56.502 64.08 56.16C62.8663 55.9571 61.6385 55.8508 60.408 55.842V55.836ZM48.468 34.8C48.973 33.1711 49.3738 31.5118 49.668 29.832C49.854 28.704 49.926 27.774 49.896 27.042C49.8977 26.6381 49.8328 26.2368 49.704 25.854C49.4039 25.8912 49.1108 25.972 48.834 26.094C48.312 26.304 47.886 26.73 47.658 27.792C47.418 28.944 47.478 30.606 47.934 32.724C48.078 33.39 48.258 34.086 48.474 34.8H48.468Z" fill="#0000ff"/>
</g>
<defs>
<clipPath id="clip0_120_473">
<rect width="96" height="96" fill="white"/>
</clipPath>
</defs>
</svg>
